<svg xmlns="http://www.w3.org/2000/svg" version="1.1" xmlns:xlink="http://www.w3.org/1999/xlink" width="512" height="512" x="0" y="0" viewBox="0 0 320 320" style="enable-background:new 0 0 512 512" xml:space="preserve" class=""><g><clipPath id="a"><path d="M0 0h320v320H0z" fill="#000000" opacity="1" data-original="#000000" class=""></path></clipPath><g clip-path="url(#a)"><rect width="320" height="320" fill="#000000" rx="80" opacity="1" data-original="#000000" class=""></rect><path fill="#ffffff" d="M196.875 174.5a271.103 271.103 0 0 1-7.625-.375c-2.583-.25-5.667-.417-9.25-.5-7.833-.167-16.333.167-25.5 1-2.083 7.167-5.542 16-10.375 26.5-4.75 10.417-9.458 19.25-14.125 26.5-10 15.5-20.167 25.083-30.5 28.75-1.5.583-3.042.875-4.625.875-1.5 0-2.875-.292-4.125-.875-1.25-.5-2.292-1.167-3.125-2-1.75-1.583-2.625-3.333-2.625-5.25s.625-3.333 1.875-4.25c11.833-8.583 24-30.208 36.5-64.875l-2.75.75c-.917.25-1.708.5-2.375.75s-1.458.375-2.375.375c-.833 0-1.792-.25-2.875-.75-1-.583-1.917-1.25-2.75-2-1.833-1.667-2.75-3.292-2.75-4.875s.708-3.042 2.125-4.375c1.5-1.417 3.333-2.75 5.5-4 4-2.333 9.042-4.5 15.125-6.5l6.75-21c7.917-24.583 15.5-41.625 22.75-51.125-6.833-.583-11.875-.875-15.125-.875-9.833 0-16.917 1.375-21.25 4.125-4.25 2.75-7.25 5.75-9 9-1.667 3.167-2.542 5.375-2.625 6.625-.25 2.333-1 3.833-2.25 4.5-1.25.583-2.792.875-4.625.875-1.75 0-3.583-.625-5.5-1.875-1.917-1.333-3.5-3-4.75-5-2.667-4.083-3.708-8.667-3.125-13.75.583-5.167 2.25-9.583 5-13.25 2.833-3.75 6.167-6.792 10-9.125 7.083-4.333 14.542-6.5 22.375-6.5 7.917 0 15.375.417 22.375 1.25 7.083.75 14.125 1.625 21.125 2.625 18.583 2.5 30.417 3.75 35.5 3.75s8.833-.292 11.25-.875c2.5-.583 4.625-1.458 6.375-2.625s2.958-1.917 3.625-2.25c.75-.417 1.917-.625 3.5-.625 2.5 0 3.583 1.917 3.25 5.75-.333 3.75-1.25 7-2.75 9.75-1.5 2.667-3.458 4.875-5.875 6.625-4.917 3.583-11.167 5.375-18.75 5.375s-16.792-.5-27.625-1.5c-2.75 5.583-5.375 12.917-7.875 22l-11.5 41.25c7.833-1.25 13.792-1.875 17.875-1.875 4.167 0 7.583.417 10.25 1.25s5.042 2 7.125 3.5c4.833 3.25 7.208 7.25 7.125 12s-2.417 7.125-7 7.125z" opacity="1" data-original="#ffffff" class=""></path></g></g></svg>
